# xmcd CD database file
#
# Track frame offsets:
#	150
#	24682
#	46652
#	70062
#	93607
#	119525
#	133567
#	148542
#	186187
#	203660
#	259290
#	300820
#	322167
#
# Disc length: 4494 seconds
#
# Revision: 0
# Processed by: cddbd v1.5.2PL0 Copyright (c) Steve Scherf et al.
# Submitted via: CDex 1.51
#
DISCID=b8118c0d
DTITLE=Bay Area Lovers - Jazz for Lovers
DYEAR=1992
DGENRE=Jazz
TTITLE0=Take Five - Dave Brubeck
TTITLE1=Moanin - The Art Farmer Quintet
TTITLE2=As Time Goes By - Susannah McCorkle
TTITLE3=Dream - Curtis Fuller
TTITLE4=Miles - Miles Davis
TTITLE5=Wen You  Wish Upon A Star_Rosemary Clooney_Harry James
TTITLE6=Four Brothers_Woody Hermand and His Orchestra
TTITLE7=Caravan_ Wynton Marsalis
TTITLE8=Moonglow_Doris Day with Paul Weston
TTITLE9=Maiden Voyage_V.O.S.P. The Quintet
TTITLE10=Dear Old Stockholm - The Phil Woods Quartet with Gene Quill
TTITLE11=But Not For Me_Carol Sloane
TTITLE12=Stardust - Jo Stafford
EXTD=YEAR: 1992
EXTT0=
EXTT1=
EXTT2=
EXTT3=
EXTT4=
EXTT5=
EXTT6=
EXTT7=
EXTT8=
EXTT9=
EXTT10=
EXTT11=
EXTT12=
PLAYORDER=
